<?xml version="1.0" standalone="no"?>
<!DOCTYPE svg PUBLIC "-//W3C//DTD SVG 20010904//EN"
 "http://www.w3.org/TR/2001/REC-SVG-20010904/DTD/svg10.dtd">
<svg version="1.0" xmlns="http://www.w3.org/2000/svg"
 width="1120.000000pt" height="928.000000pt" viewBox="0 0 1120.000000 928.000000"
 preserveAspectRatio="xMidYMid meet">
<metadata>
Created by potrace 1.16, written by Peter Selinger 2001-2019
</metadata>
<g transform="translate(0.000000,928.000000) scale(0.100000,-0.100000)"
fill="#000000" stroke="none">
<path d="M6770 7329 c-97 -49 -148 -132 -149 -244 -1 -72 24 -134 77 -188 l36
-37 -23 -71 c-18 -50 -28 -68 -38 -64 -31 11 -173 45 -263 62 -137 25 -524 25
-665 -1 -664 -121 -1136 -456 -1435 -1016 -64 -121 -69 -111 -14 27 40 99 86
191 130 260 37 59 36 62 -39 87 -59 20 -149 21 -186 1 -53 -27 -131 -180 -211
-412 -72 -209 -83 -320 -38 -378 21 -27 105 -73 170 -94 41 -13 42 -16 52
-137 20 -233 216 -465 557 -660 50 -29 154 -81 230 -115 76 -35 139 -65 139
-68 -1 -3 -22 -19 -48 -36 -66 -42 -196 -168 -247 -240 -125 -176 -192 -398
-202 -668 -21 -560 237 -1127 594 -1306 167 -83 364 -81 540 5 97 48 103 56
59 84 -51 31 -102 95 -117 146 l-13 44 -183 0 c-170 0 -184 1 -203 20 -11 11
-20 25 -20 30 0 6 -18 198 -40 426 -44 452 -47 513 -27 518 6 3 222 7 479 10
419 6 468 5 482 -9 13 -13 16 -38 16 -116 0 -86 2 -100 18 -105 55 -18 103
-44 152 -83 69 -56 107 -70 196 -71 l72 0 22 83 c67 247 65 512 -6 691 -8 22
-22 23 161 -18 383 -88 698 -28 902 170 l74 72 72 -29 c116 -46 184 -37 242
32 57 69 183 357 224 514 34 130 25 211 -30 262 -30 27 -104 60 -144 65 -28 3
-30 0 -38 -42 -37 -200 -85 -360 -134 -450 -13 -25 -21 -36 -18 -25 55 178 75
302 82 520 11 355 -56 663 -214 978 -100 200 -196 333 -361 501 -163 166 -318
277 -521 375 l-118 56 25 66 24 66 62 5 c137 11 233 106 244 244 13 161 -106
294 -263 294 -49 0 -75 -6 -125 -31z m-474 -913 c539 -107 1028 -455 1239
-881 98 -199 131 -358 122 -599 -6 -184 -36 -317 -102 -451 -76 -158 -214
-285 -363 -337 -101 -35 -279 -33 -417 4 -216 58 -1114 372 -1354 473 -305
128 -478 230 -597 350 -120 121 -184 287 -169 439 34 358 304 722 663 892 284
135 646 176 978 110z"/>
<path d="M5483 5889 c-23 -4 -56 -15 -73 -24 -49 -26 -116 -100 -136 -150 -16
-43 -16 -46 1 -65 10 -11 31 -20 46 -20 58 0 182 -30 242 -59 35 -17 94 -54
130 -82 65 -50 68 -51 91 -35 24 15 27 24 41 116 2 14 -1 50 -7 80 -28 160
-179 267 -335 239z"/>
<path d="M6819 5525 c-178 -93 -239 -377 -112 -524 113 -132 306 -97 404 73
40 70 38 82 -12 90 -55 9 -99 52 -99 99 0 59 46 98 128 109 l24 3 -29 55 c-58
110 -193 153 -304 95z"/>
<path d="M5760 5133 c-20 -25 -22 -37 -17 -108 2 -49 13 -103 26 -138 31 -81
112 -166 193 -203 56 -26 74 -29 158 -29 89 0 100 2 172 37 134 64 191 145
138 198 -32 32 -71 25 -126 -20 -54 -45 -137 -80 -188 -80 -57 0 -123 29 -160
71 -48 52 -66 100 -73 188 -7 84 -24 111 -72 111 -20 0 -36 -9 -51 -27z"/>
<path d="M3283 5830 c-57 -23 -55 -99 5 -225 l41 -85 -29 -15 c-16 -8 -33 -15
-38 -15 -5 0 -31 41 -57 91 -27 49 -61 101 -77 115 -34 28 -88 32 -112 8 -41
-40 -30 -99 41 -236 l46 -87 -24 -20 c-13 -11 -27 -20 -30 -21 -3 0 -25 27
-48 59 -59 84 -95 113 -140 109 -30 -2 -39 -9 -55 -39 -27 -51 -13 -92 71
-210 50 -71 70 -108 80 -154 41 -181 136 -394 253 -569 81 -121 267 -320 395
-423 226 -182 517 -331 803 -413 168 -48 157 -51 192 53 36 104 67 169 127
260 25 37 44 69 42 71 -2 2 -49 29 -104 61 -157 91 -239 157 -390 309 -143
144 -208 228 -288 373 -59 107 -198 410 -198 431 0 10 10 65 22 123 25 120 21
168 -16 205 -51 50 -140 16 -166 -64 -6 -20 -14 -40 -16 -45 -2 -4 -26 11 -52
33 -40 34 -55 58 -91 140 -62 146 -124 206 -187 180z"/>
<path d="M6734 3599 c17 -83 27 -210 21 -275 -5 -51 -3 -74 5 -79 7 -4 23 -31
36 -59 27 -59 32 -138 10 -190 -29 -69 -133 -121 -264 -132 l-80 -7 -137 78
c-183 104 -250 112 -291 33 -22 -42 -11 -90 32 -138 l34 -38 -158 -3 c-175 -4
-197 -11 -228 -71 -14 -28 -16 -52 -10 -163 12 -243 44 -326 146 -378 91 -45
175 -59 403 -64 165 -4 233 -2 330 12 296 42 526 148 675 310 136 148 182 333
132 531 -24 97 -103 257 -169 344 -66 87 -263 278 -292 283 -13 3 -56 10 -95
16 -39 6 -79 14 -89 17 -16 7 -17 4 -11 -27z"/>
</g>
</svg>
